# xmcd
#
# Track frame offsets: 
#        183
#        11083
#        20758
#        37708
#        54883
#        79108
#        89983
#        111358
#        130708
#        142708
#        165658
#        177058
#
# Disc length: 2667 seconds
#
# Revision: 0
# Processed by: cddbd v1.4PL0 Copyright (c) Steve Scherf et al.
# Submitted via: ExactAudioCopy v0.95a3
#
DISCID=8f0a690c
DTITLE=Bukasovy masiv - Slovensko
DYEAR=1992
DGENRE=Country
TTITLE0=Blues nezamestnaneho (Blues of The Unemployed)
TTITLE1=Strykali sme s dzetkem (I Sprayed with Grandpa)
TTITLE2=Uz asi nepojdem (I Want Go Any More)
TTITLE3=Blues Senkvickej stanice (Blues of Senkvice Railway Station)
TTITLE4=MISS-ka 92 (WC) (Election-Selection)
TTITLE5=Kral Modranskych rybaru (King of Modra Fisherman)
TTITLE6=Cigan Fero (Fero The Gipsy)
TTITLE7=Tak zabili chlapa (A Guy Was Killed)
TTITLE8=Hanka narkomanka (Hanka The Drug-Addict)
TTITLE9=Az seci umru (When Everybody Dies)
TTITLE10=Robor Janko (Johny The Robot)
TTITLE11=Bonnus Track: Johny The Robot (Slovak Radio Edit and Diso Hit A
TTITLE11=ttack Re-Remix Version Stupid Song
EXTD=
EXTT0=
EXTT1=
EXTT2=
EXTT3=
EXTT4=
EXTT5=
EXTT6=
EXTT7=
EXTT8=
EXTT9=
EXTT10=
EXTT11=
PLAYORDER=
